<svg width="500" height="637" xmlns="http://www.w3.org/2000/svg">
 <title>stand_out</title>

 <g>
  <title>background</title>
  <rect fill="none" id="canvas_background" height="639" width="502" y="-1" x="-1"/>
 </g>
 <g>
  <title>Layer 1</title>
  <path id="svg_34" fill="#3f3d56" d="m91.451814,555.808239l74.06791,-110.14639l-73.91642,121.996l0.15457,12.39423q-8.11089,0.06186 -16.06418,-0.27012l3.6736,-159.31974l-0.10065,-1.22909l0.13555,-0.23748l0.35161,-15.05474l-81.11309,-117.76675l81.01743,106.49915l0.2875,3.18211l2.77475,-120.37228l-70.05989,-122.09716l70.25938,100.95121l-0.73336,-249.38034l0.00156,-0.83l0.02384,0.8163l4.65074,196.54526l63.85118,-79.83681l-63.64214,96.76873l1.39359,107.67021l58.75621,-105.082l-58.54027,120.91137l0.77575,59.87005l85.44741,-146.378l-85.18764,167.26411l1.73506,133.13217z"/>
  <path id="svg_1" fill="#d0cde1" d="m479.703674,286.069949c-1.79371,-4.61268 0.76881,-6.919 1.79389,-11.01912s-2.30642,-16.91313 -2.30642,-16.91313s-10.76281,-44.33285 -14.09414,-53.04564c-1.40974,-3.687 -4.47141,-6.22337 -7.53464,-7.92661c-0.20773,-1.131 -0.50785,-1.86044 -0.92192,-2.06752c-2.96824,-1.48525 -10.36283,-4.7098 -15.29076,-5.60131a25.0035,25.0035 0 0 0 -3.25844,-4.40639a10.416,10.416 0 0 0 1.161,-5.39415c-0.314,-4.83476 -3.97549,-9.16717 -3.49914,-13.98862c0.36127,-3.65663 3.03444,-6.66045 4.06613,-10.18708a11.97917,11.97917 0 0 0 -1.36155,-9.44679q1.13716,1.20964 2.27416,2.41925a8.49774,8.49774 0 0 0 -0.63407,-10.26749c-2.4002,-2.65152 -6.414,-3.646 -8.27622,-6.69951c-1.9135,-3.1377 -0.88651,-7.40129 -2.69606,-10.60014c-4.43279,-7.83637 -15.78112,-2.28133 -22.57836,-5.01644c-2.79331,-1.124 -4.91662,-2.361 -8.05936,-2.27216a31.49047,31.49047 0 0 0 -7.86147,1.46812a16.60916,16.60916 0 0 0 -9.00972,6.4582a5.57887,5.57887 0 0 1 0.70383,-0.67282c1.64714,-1.29074 4.5357,-1.18327 5.4055,0.72a3.18861,3.18861 0 0 1 0.25375,1.52035c-0.14292,2.29447 -2.14724,4.00789 -4.13885,5.15611s-4.23246,2.10887 -5.53225,4.005c-2.14523,3.12917 -0.88381,7.32856 -0.88276,11.12246a16.124,16.124 0 0 1 -6.11072,12.5203l7.231,-2.9562a54.65,54.65 0 0 0 -6.678,19.58333l9.777,-8.07711a42.99171,42.99171 0 0 0 -6.42136,19.0838l7.84772,-8.04114a3.96845,3.96845 0 0 1 0.51784,2.06429l-0.81839,3.15644a20.50769,20.50769 0 0 1 -0.96019,1.83208c-1.26282,2.16846 -2.56844,4.83755 -1.3873,7.05159l0.00557,-0.00295c-1.24316,4.18287 -3.11856,8.36822 -7.29073,10.40215c4.62765,0.48418 9.45737,-1.82964 11.5471,-5.51232a10.30975,10.30975 0 0 0 1.22759,1.86039c0.13449,0.16819 0.26706,0.33512 0.39981,0.50223l-1.15322,0.76881l-3.09046,2.06034s-20.24453,4.10014 -18.96327,11.78793c0.05272,0.31625 0.11587,0.69365 0.187,1.11707l-5.8247,9.902l-8.45647,28.701s-4.35642,9.22537 -3.58769,13.06924s0,5.38145 0,12.30043s-3.33138,9.73786 0,15.37554s13.32542,22.03829 13.32542,22.03829l2.19525,1.64644a10.256,10.256 0 0 0 0.11118,2.96624c2.05,10.25036 21.26952,108.39761 21.26952,108.39761s-9.7379,77.64649 9.994,82.5154c2.47484,0.61066 4.90514,1.16474 7.266,1.658l2.98442,19.61151l-1.79389,24.85713s-13.58169,30.75107 11.27543,32.54492s13.5817,-26.651 13.5817,-26.651a13.51031,13.51031 0 0 0 1.53761,-7.944c-0.25348,-2.28125 -2.38724,-14.152 -4.47958,-25.56935c9.43335,-1.13117 7.66826,-11.14274 6.41126,-15.54465a2.54913,2.54913 0 0 0 1.14339,-1.425c0.28393,-1.02225 -0.37719,-5.04349 -1.57677,-10.67878c-0.97706,-5.602 -2.64673,-14.67092 -3.78576,-20.81422l6.13134,0.99816l25.8822,-151.70538s0.17068,-2.41508 0.09273,-5.94732a96.0791,96.0791 0 0 1 10.92635,-4.81558c8.45656,-3.33138 11.78789,-15.63181 14.60677,-20.757s-1.02494,-6.66255 -2.81883,-11.27523zm-91.8956,-96.59119a5.48186,5.48186 0 0 1 2.83489,-0.96149c-0.219,1.19193 -2.26894,1.54023 -3.98784,2.16442a5.07424,5.07424 0 0 1 1.15295,-1.20293zm-12.91431,76.3467c2.07617,3.41093 -1.68281,12.6537 -5.07016,19.98853c-1.94125,-1.67263 -3.967,-1.14526 -1.5926,-5.89425a24.10832,24.10832 0 0 0 2.8188,-9.73786c0,-0.586 0.30046,-4.89123 2.8254,-6.67972a13.48411,13.48411 0 0 0 1.01856,2.3233zm-7.77726,29.43893c1.17487,-0.47822 2.954,-1.2128 5.3567,-2.02984c-1.15113,1.51082 -2.46536,3.31084 -3.78716,5.27575a3.96917,3.96917 0 0 1 -1.56954,-3.24591zm83.11736,3.36226c-1.558,-1.65536 -2.81688,-3.136 -3.85326,-4.46084q2.89934,0.76307 5.90342,1.642a7.02461,7.02461 0 0 0 2.98581,-0.19894c0.08891,1.77153 0.08926,4.29909 0.08926,4.29909l-2.80679,1.94312a16.4625,16.4625 0 0 0 -2.31844,-3.22438l0,-0.00005zm7.95254,-8.88737c-0.02992,0.026 -0.06211,0.056 -0.0929,0.08334a16.99686,16.99686 0 0 0 -0.68434,-2.9839c-1.67941,-5.29664 -2.57679,-14.69424 -3.05428,-22.71389l4.84808,16.3074s0.25627,8.20029 -1.01656,9.30705z"/>
  <path id="svg_2" fill="#d0cde1" d="m418.643994,248.383499s-26.29048,-45.18676 -27.11206,-50.11622s-13.96679,-13.96682 -13.96679,-13.96682c-4.4913,-4.49129 -11.86012,-5.91241 -19.61536,-5.83849c2.92045,-2.416 -7.50653,-4.04009 -8.31827,-5.66359c-0.82158,-1.64316 -3.28631,-1.64316 -6.57262,-4.10789c-3.28611,-2.46458 -11.4889,-0.411 -11.4898,-0.41079a30.275,30.275 0 0 1 -2.54863,-8.188a22.90678,22.90678 0 0 0 5.41186,-14.81612c0,-0.059 -0.004,-0.117 -0.00446,-0.17591c0.2091,0.32549 0.41826,0.65294 0.62757,0.99036c1.53895,-9.21888 4.25571,-16.8819 -0.92217,-25.29164a28.35654,28.35654 0 0 0 -16.13028,-12.33123l-4.93167,3.94532l1.91735,-4.60177a26.10421,26.10421 0 0 0 -4.87431,-0.28171l-4.43724,5.70506l1.83652,-5.50965a28.08546,28.08546 0 0 0 -19.37467,11.5246c-5.64754,8.14322 -5.26955,19.46282 0.285,27.66972c0.0187,-0.05747 0.03344,-0.11373 0.05185,-0.1711a22.9969,22.9969 0 0 0 11.754,18.62154l1.39524,11.16225l0,0a7.65112,7.65112 0 0 1 -4.57449,2.01809c-2.46473,0 -4.92946,6.57262 -4.92946,6.57262s-1.3969,0.705 -2.9025,4.03282c-3.87843,2.64034 -15.70886,10.93424 -20.09811,16.73c-2.59652,1.2778 -5.38569,4.11987 -4.933,10.45716c0.82158,11.50209 0,64.90462 0,64.90462s-7.39419,45.18676 -4.92946,48.47307s-0.82158,13.96681 -0.82158,13.96681l2.46473,0.54774l0,2.73857s-7.4134,34.36585 4.10789,32.8631c18.89628,-2.46473 4.92946,-30.39836 4.92946,-30.39836l0,-3.19505l3.28631,0.73031s1.64316,-11.50208 4.92947,-12.32366c1.14306,-0.28577 2.48469,-3.35676 3.74875,-7.23814c0.73708,6.05527 1.18071,9.70287 1.18071,9.70287l5.14073,-1.1424l1.43189,5.25029a7.08643,7.08643 0 0 0 1.1041,0.50015l-1.1041,6.07247s-0.82157,6.57262 0,10.68051c0.41435,2.07169 15.66488,46.35348 30.68184,89.74354l-0.28347,10.4889s-7.3942,8.21578 -5.751,13.96682s-4.10789,53.40253 -4.10789,53.40253l-4.92947,23.82575l1.24034,0.38165l-1.13859,4.17483a8.28506,8.28506 0 0 0 -2.56648,2.01614c-6.57262,7.39419 -14.78839,28.75521 -14.78839,28.75521s-14.7884,22.18259 8.21577,21.361s24.64733,-9.03735 24.64733,-9.03735s3.2863,-21.361 3.2863,-22.18259s-1.64315,-9.267 -1.64315,-9.267l-0.6381,-0.70378l0.44559,-10.24866l4.3004,1.32318s4.10788,-21.361 7.39419,-23.82575c1.14853,-0.86139 4.20432,-10.457 7.69312,-22.782c3.56606,10.268 7.01956,45.77245 8.1401,48.99508a11.66829,11.66829 0 0 0 -1.04482,1.72057a199.63573,199.63573 0 0 1 -12.32366,20.53944s-26.29048,15.61 0,19.71786c0,0 14.78839,0.82158 22.18259,-4.10789s27.11205,-12.32366 27.11205,-13.96681s-4.92946,-25.79756 -9.85893,-23.1685l0,0l-3.30215,-7.59478l3.30215,-1.27824l-20.80019,-93.36382a47.14063,47.14063 0 0 0 1.08233,-6.04705c0,-4.3023 10.63809,-88.07723 13.34522,-109.32591c11.91428,3.37546 22.80419,-21.3049 22.80419,-21.3049l2.70082,-4.86152l3.8718,2.39678s3.28631,-8.21577 8.21577,-9.03735s13.96682,-44.36518 13.96682,-50.11622a26.74193,26.74193 0 0 0 -2.46483,-10.68067zm-38.27885,64.36972a22.13835,22.13835 0 0 0 -2.8,-3.573a101.74878,101.74878 0 0 0 4.92946,-17.25312c1.64316,-9.03736 -2.46473,-38.61414 -2.46473,-38.61414l-0.07181,-2.00867c4.03237,5.29342 9.10916,12.35064 9.10916,14.33233a6.16182,6.16182 0 0 0 2.46473,4.92946l-4.92946,17.25313s-3.28631,8.21577 -4.10789,12.32366a41.936,41.936 0 0 0 -0.82158,7.3942l1.16457,0.72088l-2.47245,4.49527z"/>
  <ellipse id="svg_8" fill="#3f3d56" ry="8" rx="87.5" cy="626.9554" cx="408.90899"/>
  <ellipse id="svg_9" fill="#3f3d56" ry="8" rx="41.5" cy="612.9554" cx="76.90899"/>
  <polygon id="svg_11" fill="#ffb8b8" points="258.90899658203125,554.4550170898438 262.90899658203125,582.4550170898438 282.90899658203125,580.4550170898438 280.90899658203125,551.4550170898438 258.90899658203125,554.4550170898438 "/>
  <polygon id="svg_12" fill="#ffb8b8" points="163.90899658203125,554.4550170898438 159.90899658203125,582.4550170898438 139.90899658203125,580.4550170898438 141.90899658203125,551.4550170898438 163.90899658203125,554.4550170898438 "/>
  <path id="svg_13" fill="#2f2e41" d="m134.908994,264.455399s-18,21 -14,54s11,108 11,108l5,133l32,-2l5,-113l16,-91l43,106s21,99 22,99s30,-3 30,-3l-14,-117s-22,-170 -35,-173s-101,-1 -101,-1z"/>
  <path id="svg_14" fill="#2f2e41" d="m284.908994,576.455399s-18,-12 -25,2s-1,24 -1,24s6,4 3,8s-4,30 22,26s13,-31 13,-31l-12,-29z"/>
  <path id="svg_15" fill="#2f2e41" d="m137.908994,576.455399s18,-12 25,2s1,24 1,24s-6,4 -3,8s4,30 -22,26s-13,-31 -13,-31l12,-29z"/>
  <path id="svg_16" fill="#ffb8b8" d="m159.408994,69.955399s9,25 2,39s11,30 11,30s47,-24 41,-36s-16,-28 -14,-38l-40,5z"/>
  <circle id="svg_17" fill="#ffb8b8" r="32" cy="47.4554" cx="176.90899"/>
  <path id="svg_18" fill="#d0cde1" d="m153.908994,107.455399s32.108,26.71833 56.054,-11.14083l24.946,14.14083l13,152s-73,42 -108,6l5,-141l9,-20z"/>
  <polygon id="svg_19" fill="#575a89" points="163.99200439453125,92.48799896240234 118.90899658203125,122.45500183105469 134.90899658203125,196.4550018310547 113.90899658203125,311.4549865722656 147.90899658203125,260.4549865722656 163.99200439453125,92.48799896240234 "/>
  <path id="svg_20" fill="#575a89" d="m203.836244,84.146939l11.07275,7.30846l45,16l-7,124l19,80l-27,14s-5,-38 -36,-57s-12.1455,-178.61692 -5.07275,-184.30846z"/>
  <path id="svg_21" fill="#ffb8b8" d="m128.908994,278.455399l13,9s-16.5,17.5 -19.5,14.5a8.19972,8.19972 0 0 1 -2.5,-6.5l-3,-7l12,-10z"/>
  <path id="svg_22" fill="#ffb8b8" d="m215.328644,276.509969l-4.41965,6.94543s-13,6 -10,10s28,13 33,4l5,-9l-23.58035,-11.94543z"/>
  <path id="svg_23" fill="#575a89" d="m124.908994,121.455399l-7,1l-11.5,74.5s-4.5,13.5 0.5,45.5s9.95137,52.83775 9.95137,52.83775l22.04863,-15.83775l-10,-26l13,-95l-17,-37z"/>
  <path id="svg_24" fill="#575a89" d="m243.908994,105.455399l16,2s18,19 21,39s2,77 2,77l-46,73l-25,-18l35,-62l-17,-74l14,-37z"/>
  <path id="svg_25" fill="#2f2e41" d="m207.424344,18.513129a37.38374,37.38374 0 0 0 -21.26531,-16.25685l-6.50165,5.2013l2.52773,-6.06673a34.41439,34.41439 0 0 0 -6.426,-0.3714l-5.84983,7.52125l2.42117,-7.26362a37.02632,37.02632 0 0 0 -25.54254,15.19343c-7.44543,10.73558 -8.70175,25.66535 -1.37889,36.48489c2.01023,-6.17759 4.45,-11.97424 6.46026,-18.1519a18.28485,18.28485 0 0 0 4.763,0.0232l2.44576,-5.70663l0.68317,5.46527c7.58041,-0.66049 18.82405,-2.11039 26.01059,-3.43891l-0.69877,-4.19261l4.18084,3.48406c2.20182,-0.50692 3.50905,-0.96651 3.401,-1.31781c5.34476,8.61641 10.64059,14.11989 15.98521,22.73623c2.02888,-12.15368 5.61051,-22.25621 -1.21574,-33.34317z"/>
  <ellipse id="svg_26" fill="#ffb8b8" ry="4.3325" rx="2.16625" cy="46.45007" cx="205.65237"/>
  <path id="svg_27" fill="#1bb1dc" d="m448.776884,587.035619c0.92164,31.55822 -17.51768,43.1236 -40.65849,43.79941q-0.80628,0.02355 -1.60531,0.02887q-1.60971,0.01227 -3.18816,-0.05361c-20.92855,-0.86883 -37.49471,-11.97817 -38.35183,-41.32724c-0.887,-30.37265 36.812,-69.836 39.64042,-72.75513l0.005,-0.00273c0.10745,-0.11124 0.16248,-0.16689 0.16248,-0.16689s43.07433,38.92166 43.99589,70.47732z"/>
  <path id="svg_28" fill="#3f3d56" d="m406.452344,626.052349l14.69985,-21.86015l-14.66978,24.21188l0.03067,2.45982q-1.60971,0.01227 -3.18816,-0.05361l0.72907,-31.61931l-0.02,-0.24393l0.0269,-0.04713l0.06978,-2.98784l-16.09803,-23.37252l16.07907,21.1363l0.05706,0.63154l0.55069,-23.88963l-13.90439,-24.23194l13.944,20.03523l-0.14555,-49.49314l0.00031,-0.16473l0.00473,0.162l0.923,39.00726l12.67219,-15.84475l-12.6307,19.20516l0.27657,21.36871l11.661,-20.85506l-11.61817,23.99662l0.154,11.88208l16.95828,-29.05084l-16.90673,33.196l0.34434,26.42198z"/>
  <path id="svg_31" fill="#1bb1dc" d="m101.294744,590.526309c0.541,18.52392 -10.28246,25.31253 -23.86556,25.70921q-0.47326,0.01383 -0.94228,0.01694q-0.94487,0.00722 -1.87138,-0.03146c-12.28455,-0.51 -22.00849,-7.0309 -22.5116,-24.2581c-0.52065,-17.828 21.60774,-40.99207 23.268,-42.70552l0.003,-0.0016c0.06307,-0.0653 0.09537,-0.098 0.09537,-0.098s25.28352,22.84612 25.82445,41.36853z"/>
  <path id="svg_32" fill="#3f3d56" d="m76.451254,613.428199l8.62846,-12.83138l-8.61081,14.21179l0.018,1.44385q-0.94487,0.00722 -1.87138,-0.03146l0.428,-18.55978l-0.01173,-0.14318l0.01579,-0.02767l0.041,-1.75378l-9.44918,-13.71911l9.438,12.4065l0.0335,0.37069l0.32324,-14.02263l-8.16155,-14.22358l8.18479,11.7602l-0.08543,-29.05128l0.00018,-0.0967l0.00278,0.0951l0.54178,22.89632l7.43827,-9.3005l-7.41392,11.273l0.16235,12.54292l6.84474,-12.24142l-6.81959,14.08545l0.09037,6.97449l9.9541,-17.05215l-9.92387,19.48523l0.20211,15.50908z"/>
  <path id="svg_33" fill="#2f2e41" d="m752.194514,52.187029c0.02869,-0.09119 0.059,-0.18353 0.08777,-0.275c-0.01245,0.0401 -0.02807,0.07867 -0.04028,0.11889l-0.04749,0.15611z"/>
 </g>
</svg>